<svg width="16" height="14" xmlns="http://www.w3.org/2000/svg" xmlns:xlink="http://www.w3.org/1999/xlink" xmlns:svgjs="http://svgjs.com/svgjs" viewBox="1864 462 16 14"><svg width="15" height="2" xmlns="http://www.w3.org/2000/svg" xmlns:xlink="http://www.w3.org/1999/xlink" xmlns:svgjs="http://svgjs.com/svgjs" viewBox="0 0.464 15 1.071" fill="none" stroke-miterlimit="100" stroke="#fff" x="1865" y="473"><svg xmlns="http://www.w3.org/2000/svg" xmlns:xlink="http://www.w3.org/1999/xlink" width="15" height="2" viewBox="2 2 14 1"><path paint-order="stroke fill markers" d="M2 3V2h14v1H2z"/></svg></svg><svg width="2" height="12" xmlns="http://www.w3.org/2000/svg" xmlns:xlink="http://www.w3.org/1999/xlink" xmlns:svgjs="http://svgjs.com/svgjs" viewBox="0.455 0 1.091 12" fill="none" stroke-miterlimit="100" stroke="#fff" x="1864" y="463"><svg xmlns="http://www.w3.org/2000/svg" xmlns:xlink="http://www.w3.org/1999/xlink" width="2" height="12" viewBox="2 2 1 11"><path paint-order="stroke fill markers" d="M2 2h1v11H2V2z"/></svg></svg><svg width="7" height="10" xmlns="http://www.w3.org/2000/svg" xmlns:xlink="http://www.w3.org/1999/xlink" xmlns:svgjs="http://svgjs.com/svgjs" viewBox="0.253 0 6.494 10" fill="none" stroke-miterlimit="100" stroke="#fff" x="1864" y="466"><svg xmlns="http://www.w3.org/2000/svg" xmlns:xlink="http://www.w3.org/1999/xlink" width="7" height="10" viewBox="1.566 1.752 4.868 7.496"><path paint-order="stroke fill markers" d="M2.434 9.248l-.868-.496 4-7 .868.496-4 7z"/></svg></svg><svg width="7" height="7" xmlns="http://www.w3.org/2000/svg" xmlns:xlink="http://www.w3.org/1999/xlink" xmlns:svgjs="http://svgjs.com/svgjs" fill="none" stroke-miterlimit="100" stroke="#fff" x="1868" y="466"><svg xmlns="http://www.w3.org/2000/svg" xmlns:xlink="http://www.w3.org/1999/xlink" width="7" height="7" viewBox="1.646 1.646 4.707 4.707"><path paint-order="stroke fill markers" d="M1.646 2.353l.707-.707 4 4-.707.707-4-4z"/></svg></svg><svg width="8" height="11" xmlns="http://www.w3.org/2000/svg" xmlns:xlink="http://www.w3.org/1999/xlink" xmlns:svgjs="http://svgjs.com/svgjs" viewBox="0.229 0 7.541 11" fill="none" stroke-miterlimit="100" stroke="#fff" x="1872" y="462"><svg xmlns="http://www.w3.org/2000/svg" width="8" height="11" viewBox="1.576 1.735 5.848 8.53"><path paint-order="stroke fill markers" d="M2.424 10.265l-.848-.53 5-8 .848.53-5 8z"/></svg></svg></svg>