<svg width="56" height="107" xmlns="http://www.w3.org/2000/svg" xmlns:xlink="http://www.w3.org/1999/xlink" xmlns:svgjs="http://svgjs.com/svgjs" viewBox="325 121 56 107"><svg width="49" height="2" xmlns="http://www.w3.org/2000/svg" xmlns:xlink="http://www.w3.org/1999/xlink" xmlns:svgjs="http://svgjs.com/svgjs" viewBox="0 0.49 49 1.021" fill="none" stroke-miterlimit="100" stroke="#009fe2" x="332" y="125"><svg xmlns="http://www.w3.org/2000/svg" xmlns:xlink="http://www.w3.org/1999/xlink" width="49" height="2" viewBox="2 2 48 1"><path paint-order="stroke fill markers" d="M2 2h48v1H2V2z"/></svg></svg><svg width="2" height="6" xmlns="http://www.w3.org/2000/svg" xmlns:xlink="http://www.w3.org/1999/xlink" xmlns:svgjs="http://svgjs.com/svgjs" viewBox="0.4 0 1.2 6" fill="none" stroke-miterlimit="100" stroke="#009fe2" x="332" y="121"><svg xmlns="http://www.w3.org/2000/svg" xmlns:xlink="http://www.w3.org/1999/xlink" width="2" height="6" viewBox="2 2 1 5"><path paint-order="stroke fill markers" d="M2 2h1v5H2V2z"/></svg></svg><svg width="49" height="2" xmlns="http://www.w3.org/2000/svg" xmlns:xlink="http://www.w3.org/1999/xlink" xmlns:svgjs="http://svgjs.com/svgjs" viewBox="0 0.49 49 1.021" fill="none" stroke-miterlimit="100" stroke="#009fe2" x="332" y="222"><svg xmlns="http://www.w3.org/2000/svg" xmlns:xlink="http://www.w3.org/1999/xlink" width="49" height="2" viewBox="2 2 48 1"><path paint-order="stroke fill markers" d="M2 2h48v1H2V2z"/></svg></svg><svg width="2" height="6" xmlns="http://www.w3.org/2000/svg" xmlns:xlink="http://www.w3.org/1999/xlink" xmlns:svgjs="http://svgjs.com/svgjs" viewBox="0.4 0 1.2 6" fill="none" stroke-miterlimit="100" stroke="#009fe2" x="332" y="222"><svg xmlns="http://www.w3.org/2000/svg" xmlns:xlink="http://www.w3.org/1999/xlink" width="2" height="6" viewBox="2 2 1 5"><path paint-order="stroke fill markers" d="M2 2h1v5H2V2z"/></svg></svg><svg width="2" height="97" xmlns="http://www.w3.org/2000/svg" xmlns:xlink="http://www.w3.org/1999/xlink" xmlns:svgjs="http://svgjs.com/svgjs" viewBox="0.495 0 1.01 97" fill="none" stroke-miterlimit="100" stroke="#009fe2" x="379" y="126"><svg xmlns="http://www.w3.org/2000/svg" xmlns:xlink="http://www.w3.org/1999/xlink" width="2" height="97" viewBox="2 1.999 1 96"><path paint-order="stroke fill markers" d="M2 1.999h1v96H2v-96z"/></svg></svg><svg width="2" height="8" xmlns="http://www.w3.org/2000/svg" xmlns:xlink="http://www.w3.org/1999/xlink" xmlns:svgjs="http://svgjs.com/svgjs" viewBox="0.429 0 1.143 8" fill="none" stroke-miterlimit="100" stroke="#2f3b4c" x="332" y="131"><svg xmlns="http://www.w3.org/2000/svg" xmlns:xlink="http://www.w3.org/1999/xlink" width="2" height="8" viewBox="2 2 1 7"><path paint-order="stroke fill markers" d="M2 2h1v7H2V2z"/></svg></svg><svg width="8" height="4" xmlns="http://www.w3.org/2000/svg" xmlns:xlink="http://www.w3.org/1999/xlink" xmlns:svgjs="http://svgjs.com/svgjs" viewBox="0 0.286 8 3.429" fill="none" stroke-miterlimit="100" stroke="#2f3b4c" x="329" y="128"><svg xmlns="http://www.w3.org/2000/svg" xmlns:xlink="http://www.w3.org/1999/xlink" width="8" height="4" viewBox="2 2 7 3"><path paint-order="stroke fill markers" d="M3.5 2h4a1.5 1.5 0 1 1 0 3h-4a1.5 1.5 0 0 1 0-3z"/></svg></svg><svg width="16" height="4" xmlns="http://www.w3.org/2000/svg" xmlns:xlink="http://www.w3.org/1999/xlink" xmlns:svgjs="http://svgjs.com/svgjs" viewBox="0 0.4 16 3.2" fill="none" stroke-miterlimit="100" stroke="#2f3b4c" x="325" y="138"><svg xmlns="http://www.w3.org/2000/svg" xmlns:xlink="http://www.w3.org/1999/xlink" width="16" height="4" viewBox="2 2 15 3"><path paint-order="stroke fill markers" d="M3.5 2h12a1.5 1.5 0 0 1 0 3h-12a1.5 1.5 0 0 1 0-3z"/></svg></svg><svg width="10" height="36" xmlns="http://www.w3.org/2000/svg" xmlns:xlink="http://www.w3.org/1999/xlink" xmlns:svgjs="http://svgjs.com/svgjs" viewBox="0 4.875 10 26.25" fill="none" stroke-miterlimit="100" stroke="#2f3b4c" x="328" y="140"><svg xmlns="http://www.w3.org/2000/svg" xmlns:xlink="http://www.w3.org/1999/xlink" width="10" height="36" viewBox="2 2 16 42"><path paint-order="stroke fill markers" d="M7.5 5h2A3.5 3.5 0 0 1 13 8.5v32A3.5 3.5 0 0 1 9.5 44h-2A3.5 3.5 0 0 1 4 40.5v-32A3.5 3.5 0 0 1 7.5 5zM2 2h16v7H2V2z"/></svg></svg><svg width="2" height="27" xmlns="http://www.w3.org/2000/svg" xmlns:xlink="http://www.w3.org/1999/xlink" xmlns:svgjs="http://svgjs.com/svgjs" viewBox="0.481 0 1.038 27" fill="#2f3b4c" x="332" y="144"><svg xmlns="http://www.w3.org/2000/svg" xmlns:xlink="http://www.w3.org/1999/xlink" width="2" height="27" viewBox="2 2 1 26"><path paint-order="stroke fill markers" fill-rule="evenodd" d="M2 2h1v26H2V2z"/></svg></svg><svg width="4" height="3" xmlns="http://www.w3.org/2000/svg" xmlns:xlink="http://www.w3.org/1999/xlink" xmlns:svgjs="http://svgjs.com/svgjs" viewBox="0 0.167 4 2.667" fill="none" stroke-miterlimit="100" stroke="#2f3b4c" x="331" y="175"><svg xmlns="http://www.w3.org/2000/svg" xmlns:xlink="http://www.w3.org/1999/xlink" width="4" height="3" viewBox="2 2 3 2"><path paint-order="stroke fill markers" d="M2 2h3v2H2V2z"/></svg></svg><svg width="2" height="14" xmlns="http://www.w3.org/2000/svg" xmlns:xlink="http://www.w3.org/1999/xlink" xmlns:svgjs="http://svgjs.com/svgjs" viewBox="0.462 0 1.077 14" fill="none" stroke-miterlimit="100" stroke="#2f3b4c" x="332" y="176"><svg xmlns="http://www.w3.org/2000/svg" xmlns:xlink="http://www.w3.org/1999/xlink" width="2" height="14" viewBox="2 2 1 13"><path paint-order="stroke fill markers" d="M2 2h1v13H2V2z"/></svg></svg><svg width="5" height="2" xmlns="http://www.w3.org/2000/svg" xmlns:xlink="http://www.w3.org/1999/xlink" xmlns:svgjs="http://svgjs.com/svgjs" viewBox="0 0.375 5 1.25" fill="none" stroke-miterlimit="100" stroke="#2f3b4c" x="330" y="155"><svg xmlns="http://www.w3.org/2000/svg" xmlns:xlink="http://www.w3.org/1999/xlink" width="5" height="2" viewBox="2 2 4 1"><path paint-order="stroke fill markers" d="M2 2h4v1H2V2z"/></svg></svg><svg width="3" height="2" xmlns="http://www.w3.org/2000/svg" xmlns:xlink="http://www.w3.org/1999/xlink" xmlns:svgjs="http://svgjs.com/svgjs" viewBox="0 0.25 3 1.5" fill="none" stroke-miterlimit="100" stroke="#2f3b4c" x="332" y="158"><svg xmlns="http://www.w3.org/2000/svg" xmlns:xlink="http://www.w3.org/1999/xlink" width="3" height="2" viewBox="2 2 2 1"><path paint-order="stroke fill markers" d="M2 2h2v1H2V2z"/></svg></svg><svg width="5" height="2" xmlns="http://www.w3.org/2000/svg" xmlns:xlink="http://www.w3.org/1999/xlink" xmlns:svgjs="http://svgjs.com/svgjs" viewBox="0 0.375 5 1.25" fill="none" stroke-miterlimit="100" stroke="#2f3b4c" x="330" y="161"><svg xmlns="http://www.w3.org/2000/svg" xmlns:xlink="http://www.w3.org/1999/xlink" width="5" height="2" viewBox="2 2 4 1"><path paint-order="stroke fill markers" d="M2 2h4v1H2V2z"/></svg></svg><svg width="3" height="2" xmlns="http://www.w3.org/2000/svg" xmlns:xlink="http://www.w3.org/1999/xlink" xmlns:svgjs="http://svgjs.com/svgjs" viewBox="0 0.25 3 1.5" fill="none" stroke-miterlimit="100" stroke="#2f3b4c" x="332" y="164"><svg xmlns="http://www.w3.org/2000/svg" xmlns:xlink="http://www.w3.org/1999/xlink" width="3" height="2" viewBox="2 2 2 1"><path paint-order="stroke fill markers" d="M2 2h2v1H2V2z"/></svg></svg><svg width="5" height="2" xmlns="http://www.w3.org/2000/svg" xmlns:xlink="http://www.w3.org/1999/xlink" xmlns:svgjs="http://svgjs.com/svgjs" viewBox="0 0.375 5 1.25" fill="none" stroke-miterlimit="100" stroke="#2f3b4c" x="330" y="166"><svg xmlns="http://www.w3.org/2000/svg" xmlns:xlink="http://www.w3.org/1999/xlink" width="5" height="2" viewBox="2 2 4 1"><path paint-order="stroke fill markers" d="M2 2h4v1H2V2z"/></svg></svg><svg width="5" height="2" xmlns="http://www.w3.org/2000/svg" xmlns:xlink="http://www.w3.org/1999/xlink" xmlns:svgjs="http://svgjs.com/svgjs" viewBox="0 0.375 5 1.25" fill="none" stroke-miterlimit="100" stroke="#2f3b4c" x="330" y="143"><svg xmlns="http://www.w3.org/2000/svg" xmlns:xlink="http://www.w3.org/1999/xlink" width="5" height="2" viewBox="2 2 4 1"><path paint-order="stroke fill markers" d="M2 2h4v1H2V2z"/></svg></svg><svg width="3" height="2" xmlns="http://www.w3.org/2000/svg" xmlns:xlink="http://www.w3.org/1999/xlink" xmlns:svgjs="http://svgjs.com/svgjs" viewBox="0 0.25 3 1.5" fill="none" stroke-miterlimit="100" stroke="#2f3b4c" x="332" y="146"><svg xmlns="http://www.w3.org/2000/svg" xmlns:xlink="http://www.w3.org/1999/xlink" width="3" height="2" viewBox="2 2 2 1"><path paint-order="stroke fill markers" d="M2 2h2v1H2V2z"/></svg></svg><svg width="5" height="2" xmlns="http://www.w3.org/2000/svg" xmlns:xlink="http://www.w3.org/1999/xlink" xmlns:svgjs="http://svgjs.com/svgjs" viewBox="0 0.375 5 1.25" fill="none" stroke-miterlimit="100" stroke="#2f3b4c" x="330" y="149"><svg xmlns="http://www.w3.org/2000/svg" xmlns:xlink="http://www.w3.org/1999/xlink" width="5" height="2" viewBox="2 2 4 1"><path paint-order="stroke fill markers" d="M2 2h4v1H2V2z"/></svg></svg><svg width="3" height="2" xmlns="http://www.w3.org/2000/svg" xmlns:xlink="http://www.w3.org/1999/xlink" xmlns:svgjs="http://svgjs.com/svgjs" viewBox="0 0.25 3 1.5" fill="none" stroke-miterlimit="100" stroke="#2f3b4c" x="332" y="152"><svg xmlns="http://www.w3.org/2000/svg" xmlns:xlink="http://www.w3.org/1999/xlink" width="3" height="2" viewBox="2 2 2 1"><path paint-order="stroke fill markers" d="M2 2h2v1H2V2z"/></svg></svg><svg width="5" height="2" xmlns="http://www.w3.org/2000/svg" xmlns:xlink="http://www.w3.org/1999/xlink" xmlns:svgjs="http://svgjs.com/svgjs" viewBox="0 0.375 5 1.25" fill="none" stroke-miterlimit="100" stroke="#2f3b4c" x="330" y="155"><svg xmlns="http://www.w3.org/2000/svg" xmlns:xlink="http://www.w3.org/1999/xlink" width="5" height="2" viewBox="2 2 4 1"><path paint-order="stroke fill markers" d="M2 2h4v1H2V2z"/></svg></svg><svg width="16" height="30" xmlns="http://www.w3.org/2000/svg" xmlns:xlink="http://www.w3.org/1999/xlink" xmlns:svgjs="http://svgjs.com/svgjs" viewBox="325 191 16 30" x="325" y="191"><svg width="14" height="6" xmlns="http://www.w3.org/2000/svg" xmlns:xlink="http://www.w3.org/1999/xlink" xmlns:svgjs="http://svgjs.com/svgjs" viewBox="0 0.308 14 5.385" fill="none" stroke-miterlimit="100" stroke="#afb0c3" x="326" y="191"><svg xmlns="http://www.w3.org/2000/svg" xmlns:xlink="http://www.w3.org/1999/xlink" width="14" height="6" viewBox="2 2 13 5"><path paint-order="stroke fill markers" d="M4.5 2h8a2.5 2.5 0 0 1 0 5h-8a2.5 2.5 0 1 1 0-5z"/></svg></svg><svg width="16" height="24" xmlns="http://www.w3.org/2000/svg" xmlns:xlink="http://www.w3.org/1999/xlink" xmlns:svgjs="http://svgjs.com/svgjs" viewBox="0 2.769 16 18.462" fill="none" stroke-miterlimit="100" stroke="#afb0c3" x="325" y="197"><svg xmlns="http://www.w3.org/2000/svg" xmlns:xlink="http://www.w3.org/1999/xlink" width="16" height="24" viewBox="2 2 26 30"><path paint-order="stroke fill markers" d="M14.5 2C18.642 2 22 3.358 22 7.5v13c0 4.142-3.858 4.5-8 4.5-4.142 0-7-.358-7-4.5v-13C7 3.358 10.358 2 14.5 2zM2 20s5.41 8 12 8c6.64 0 14-8 14-8v12H2V20z"/></svg></svg><svg width="10" height="5" xmlns="http://www.w3.org/2000/svg" xmlns:xlink="http://www.w3.org/1999/xlink" xmlns:svgjs="http://svgjs.com/svgjs" viewBox="0 0.278 10 4.444" fill="none" stroke-miterlimit="100" stroke="#afb0c3" x="328" y="195"><svg xmlns="http://www.w3.org/2000/svg" width="10" height="5" viewBox="1 2 9 4"><path paint-order="stroke fill markers" d="M1 2h9v4H1V2z"/></svg></svg></svg></svg>