<svg width="27" height="27" xmlns="http://www.w3.org/2000/svg" xmlns:xlink="http://www.w3.org/1999/xlink" xmlns:svgjs="http://svgjs.com/svgjs" viewBox="608 505 27 27"><svg width="5" height="5" xmlns="http://www.w3.org/2000/svg" xmlns:xlink="http://www.w3.org/1999/xlink" xmlns:svgjs="http://svgjs.com/svgjs" fill="none" stroke-miterlimit="100" stroke="#afb0c3" x="624" y="516"><svg xmlns="http://www.w3.org/2000/svg" xmlns:xlink="http://www.w3.org/1999/xlink" width="5" height="5" viewBox="2 2 4 4"><path paint-order="stroke fill markers" d="M4 2a2 2 0 1 1 0 4 2 2 0 0 1 0-4z"/></svg></svg><svg width="5" height="5" xmlns="http://www.w3.org/2000/svg" xmlns:xlink="http://www.w3.org/1999/xlink" xmlns:svgjs="http://svgjs.com/svgjs" fill="none" stroke-miterlimit="100" stroke="#afb0c3" x="619" y="516"><svg xmlns="http://www.w3.org/2000/svg" xmlns:xlink="http://www.w3.org/1999/xlink" width="5" height="5" viewBox="2 2 4 4"><path paint-order="stroke fill markers" d="M4 2a2 2 0 1 1 0 4 2 2 0 0 1 0-4z"/></svg></svg><svg width="5" height="5" xmlns="http://www.w3.org/2000/svg" xmlns:xlink="http://www.w3.org/1999/xlink" xmlns:svgjs="http://svgjs.com/svgjs" fill="none" stroke-miterlimit="100" stroke="#afb0c3" x="614" y="516"><svg xmlns="http://www.w3.org/2000/svg" xmlns:xlink="http://www.w3.org/1999/xlink" width="5" height="5" viewBox="1 2 4 4"><path paint-order="stroke fill markers" d="M3 2a2 2 0 1 1 0 4 2 2 0 0 1 0-4z"/></svg></svg><svg width="27" height="27" xmlns="http://www.w3.org/2000/svg" xmlns:xlink="http://www.w3.org/1999/xlink" xmlns:svgjs="http://svgjs.com/svgjs" fill="none" stroke-miterlimit="100" stroke="#afb0c3" x="608" y="505"><svg xmlns="http://www.w3.org/2000/svg" width="27" height="27" viewBox="2 2 26 26"><path paint-order="stroke fill markers" d="M15 2c7.18 0 13 5.82 13 13s-5.82 13-13 13S2 22.18 2 15 7.82 2 15 2z"/></svg></svg></svg>